HIERARCHY
ROOT Hips
{
	OFFSET 0.000000 0.000000 0.000000
	CHANNELS 6 Xposition Yposition Zposition Zrotation Yrotation Xrotation 
	JOINT LHipJoint
	{
		OFFSET 0.000000 0.000000 0.000000
		CHANNELS 3 Zrotation Yrotation Xrotation
		JOINT LeftUpLeg
		{
			OFFSET 1.363060 -1.794630 0.839290
			CHANNELS 3 Zrotation Yrotation Xrotation
			JOINT LeftLeg
			{
				OFFSET 2.448110 -6.726130 0.000000
				CHANNELS 3 Zrotation Yrotation Xrotation
				JOINT LeftFoot
				{
					OFFSET 2.562200 -7.039590 0.000000
					CHANNELS 3 Zrotation Yrotation Xrotation
					JOINT LeftToeBase
					{
						OFFSET 0.157640 -0.433110 2.322550
						CHANNELS 3 Zrotation Yrotation Xrotation
						End Site
						{
							OFFSET 0.000000 0.000000 0.000000
						}
					}
				}
			}
		}
	}
	JOINT RHipJoint
	{
		OFFSET 0.000000 0.000000 0.000000
		CHANNELS 3 Zrotation Yrotation Xrotation
		JOINT RightUpLeg
		{
			OFFSET -1.305520 -1.794630 0.839290
			CHANNELS 3 Zrotation Yrotation Xrotation
			JOINT RightLeg
			{
				OFFSET -2.542530 -6.985550 0.000000
				CHANNELS 3 Zrotation Yrotation Xrotation
				JOINT RightFoot
				{
					OFFSET -2.568260 -7.056230 0.000000
					CHANNELS 3 Zrotation Yrotation Xrotation
					JOINT RightToeBase
					{
						OFFSET -0.164730 -0.452590 2.363150
						CHANNELS 3 Zrotation Yrotation Xrotation
						End Site
						{
							OFFSET 0.000000 0.000000 0.000000
						}
					}
				}
			}
		}
	}
}
MOTION
Frames: 28
Frame Time: 0.008333
4.096475 18.343240 2.345693 167.355998 -87.513157 -129.543109 -11.585376 1.242238 0.956218 -7.205744 9.387435 -40.113064 -0.412340 1.321918 37.872608 1.991582 9.995611 26.686248 5.091200 -0.000000 -63.399800 10.859701 -0.858544 0.014394 6.086081 -12.416107 -44.493683 0.702839 -3.380357 45.991766 -1.531190 -7.257433 16.405741 -3.101700 0.000000 -79.432500
3.923105 18.485592 2.322929 166.605204 -87.444684 -128.211573 -11.468651 1.046350 0.935447 -7.546668 9.099562 -42.265260 -0.372100 1.484291 40.142524 2.071751 10.860665 25.376550 5.435600 0.000000 -61.108400 10.819272 -0.624451 0.202128 5.976833 -11.721939 -46.745314 0.599008 -3.570437 48.124431 -1.721444 -8.469570 13.971614 -3.374300 -0.000000 -77.831499
3.756609 18.614990 2.300547 164.691988 -87.426378 -125.606467 -11.329809 0.835206 0.918045 -7.925283 8.610401 -44.669934 -0.325466 1.679123 42.583228 2.143152 11.630212 23.658254 5.647200 -0.000000 -59.346100 10.785158 -0.361358 0.394172 5.794865 -10.971669 -49.184632 0.494858 -3.780248 50.271175 -1.890847 -9.379352 11.502174 -3.441000 0.000000 -76.508900
3.596109 18.731827 2.278514 161.728747 -87.439048 -121.857295 -11.175560 0.615539 0.904470 -8.326110 7.947013 -47.269444 -0.272105 1.899395 45.079631 2.207797 12.263787 21.729692 5.723800 -0.000000 -58.083700 10.754996 -0.073353 0.583690 5.533894 -10.200866 -51.772763 0.389984 -4.004866 52.366186 -2.026989 -9.963752 9.168089 -3.344500 -0.000000 -75.346600
3.440644 18.836676 2.256994 157.894520 -87.469809 -117.164323 -11.011072 0.390526 0.894084 -8.728069 7.146311 -50.009098 -0.212387 2.137714 47.530982 2.265587 12.740172 19.766652 5.684000 -0.000000 -57.222400 10.724656 0.233268 0.766916 5.199579 -9.433437 -54.464110 0.284661 -4.238038 54.339921 -2.122825 -10.245477 7.114620 -3.150500 0.000000 -74.350600
3.289129 18.930210 2.236237 153.392390 -87.507319 -111.748033 -10.842324 0.162155 0.886852 -9.110935 6.245291 -52.841457 -0.147423 2.386334 49.849999 2.315956 13.061998 17.923964 5.565100 0.000000 -56.758700 10.687453 0.551005 0.942104 4.803738 -8.682562 -57.215930 0.179757 -4.472112 56.132095 -2.177400 -10.276538 5.439436 -2.923100 0.000000 -73.778900
3.140099 19.012822 2.215857 148.364186 -87.537609 -105.760362 -10.670772 -0.064742 0.885607 -9.470001 5.274213 -55.734198 -0.079407 2.637313 51.967878 2.357359 13.245231 16.311348 5.407400 -0.000000 -56.571000 10.641352 0.872057 1.114209 4.351633 -7.954413 -60.007137 0.076978 -4.702233 57.716137 -2.191704 -10.099711 4.149685 -2.697801 -0.000000 -73.397800
2.992457 19.085017 2.195941 143.029234 -87.554493 -99.431583 -10.500582 -0.288750 0.891614 -9.792758 4.259564 -58.657392 -0.010735 2.884186 53.834761 2.389515 13.316114 15.004411 5.248500 -0.000001 -56.638300 10.580808 1.188158 1.285427 3.854996 -7.248330 -62.809459 -0.021339 -4.922043 59.064827 -2.173250 -9.778613 3.235989 -2.501300 -0.000000 -73.303800
2.844976 19.147059 2.176217 137.572442 -87.552793 -92.952397 -10.332608 -0.506776 0.907235 -10.075667 3.220361 -61.590126 0.055354 3.121477 55.418832 2.412418 13.302343 14.031708 5.114900 -0.000000 -56.869300 10.504701 1.491969 1.460747 3.318782 -6.562320 -65.607213 -0.112441 -5.127776 60.172335 -2.130366 -9.364711 2.639423 -2.339599 0.000000 -73.381600
2.696792 19.199470 2.156643 132.158888 -87.531634 -86.494398 -10.167556 -0.716356 0.933680 -10.314734 2.169718 -64.512537 0.115316 3.345071 56.702896 2.426801 13.229977 13.386446 5.021000 -0.000000 -57.202300 10.412841 1.777317 1.642933 2.746849 -5.895134 -68.384560 -0.193376 -5.316659 61.039873 -2.071986 -8.903996 2.286701 -2.210500 -0.000000 -73.577600
2.547021 19.242017 2.136925 126.928921 -87.489255 -80.201745 -10.004543 -0.913043 0.972023 -10.512076 1.116223 -67.407671 0.164826 3.552204 57.680348 2.433044 13.117271 13.029801 4.969100 -0.000000 -57.554300 10.308284 2.040048 1.835245 2.137957 -5.247728 -71.132097 -0.261632 -5.487506 61.678493 -2.005179 -8.427308 2.094448 -2.105800 -0.000000 -73.788100
2.395189 19.274987 2.117058 121.978613 -87.426671 -74.176840 -9.844221 -1.093801 1.020911 -10.667499 0.065265 -70.254858 0.199734 3.741230 58.352208 2.431398 12.975584 12.905538 4.953400 0.000000 -57.907901 10.193386 2.277417 2.036214 1.492674 -4.625591 -73.835247 -0.314613 -5.639665 62.098096 -1.934822 -7.954147 1.993254 -2.017500 0.000000 -74.009500
2.240931 19.298501 2.096924 117.389612 -87.343524 -68.507344 -9.686569 -1.254244 1.078358 -10.786045 -0.979727 -73.033284 0.215655 3.911311 58.723145 2.421017 12.806362 12.946377 4.961100 -0.000000 -58.242900 10.072546 2.488596 2.243921 0.809887 -4.037567 -76.481857 -0.350193 -5.773420 62.310757 -1.862342 -7.486882 1.926354 -1.937100 0.000000 -74.215200
2.084016 19.312249 2.076341 113.246043 -87.238742 -63.285287 -9.531788 -1.389296 1.141799 -10.876614 -2.016463 -75.720881 0.208318 4.062279 58.800350 2.399778 12.601339 13.083409 4.975600 0.000001 -58.537001 9.950950 2.674292 2.455560 0.089915 -3.495282 -79.059699 -0.366604 -5.889485 62.327274 -1.785976 -7.014107 1.857353 -1.856400 0.000000 -74.370900
1.913250 19.306308 2.072304 93.488845 -87.059990 -42.149185 -9.447288 -1.584341 1.559140 -10.360645 -3.886799 -78.854904 0.266983 4.116762 58.638655 2.394966 12.434449 13.503598 5.071600 0.000000 -58.894600 9.780288 2.699061 2.625753 -0.153814 -3.545474 -81.905353 -0.277928 -6.083229 62.161585 -1.696010 -6.508347 1.666539 -1.768600 -0.000000 -74.411700
1.750936 19.300628 2.050550 91.287016 -86.873162 -38.900748 -9.294903 -1.655352 1.619823 -10.415735 -4.889529 -81.281369 0.202770 4.224479 58.131727 2.342536 12.118837 13.677617 5.052500 0.000000 -59.157600 9.682908 2.837059 2.836292 -0.936343 -3.126538 -84.299414 -0.249609 -6.171518 61.806391 -1.598328 -5.962095 1.578581 -1.670500 -0.000000 -74.536700
1.585984 19.285156 2.027975 89.743443 -86.676780 -36.343205 -9.151825 -1.689631 1.676932 -10.478812 -5.874020 -83.546176 0.104447 4.314024 57.352865 2.269953 11.723639 13.812266 4.995300 0.000001 -59.400400 9.595534 2.956243 3.035504 -1.724821 -2.785698 -86.575405 -0.197005 -6.242662 61.262828 -1.481078 -5.345587 1.512492 -1.557900 0.000000 -74.657500
1.418559 19.259563 2.004622 88.780314 -86.475245 -34.409597 -9.020634 -1.687540 1.729676 -10.558646 -6.836495 -85.630616 -0.030221 4.384444 56.309255 2.175204 11.241421 13.901687 4.895300 0.000000 -59.682399 9.519835 3.057280 3.218280 -2.494605 -2.525817 -88.717182 -0.118454 -6.296974 60.528420 -1.339708 -4.645891 1.505601 -1.429800 0.000000 -74.833900
1.248570 19.223688 1.980495 88.321424 -86.273915 -33.030752 -8.903368 -1.650500 1.778759 -10.662955 -7.770885 -87.522302 -0.202934 4.434703 55.011120 2.057096 10.670317 13.954717 4.753100 -0.000001 -60.033800 9.457276 3.140367 3.381053 -3.216767 -2.342927 -90.712301 -0.012679 -6.334819 59.603178 -1.171709 -3.859524 1.594377 -1.285500 0.000000 -75.084700
1.076049 19.177325 1.955552 88.298779 -86.078829 -32.145986 -8.801280 -1.580910 1.825740 -10.800262 -8.669159 -89.215681 -0.414840 4.464156 53.473738 1.915264 10.013512 13.988559 4.572000 0.000001 -60.394500 9.408824 3.205665 3.521948 -3.861477 -2.226945 -92.554371 0.120606 -6.356868 58.493485 -0.977407 -2.994455 1.810986 -1.124500 -0.000000 -75.384800
0.901056 19.120540 1.929908 88.618900 -85.896817 -31.667795 -8.714875 -1.483184 1.873298 -10.973910 -9.522891 -90.712277 -0.665469 4.471745 51.716527 1.751217 9.284200 14.036212 4.361400 0.000000 -60.758900 9.374574 3.252561 3.640031 -4.396180 -2.161749 -94.242858 0.281057 -6.363982 57.209708 -0.760593 -2.072057 2.184216 -0.947600 -0.000000 -75.741200
0.723536 19.052861 1.903804 89.163917 -85.735959 -31.478438 -8.644371 -1.363613 1.925753 -11.180284 -10.324479 -92.023000 -0.952134 4.455792 49.760826 1.568786 8.507616 14.150118 4.137000 -0.000000 -61.255900 9.353951 3.279353 3.735485 -4.788257 -2.127765 -95.784280 0.467799 -6.357547 55.767746 -0.528006 -1.124187 2.738394 -0.756200 0.000000 -76.180400
0.543533 18.974491 1.877311 89.888874 -85.601428 -31.534608 -8.589276 -1.227592 1.984909 -11.423379 -11.064074 -93.163472 -1.271900 4.417215 47.641350 1.370570 7.700070 14.363707 3.905900 -0.000000 -61.737900 9.346537 3.285489 3.810147 -5.013208 -2.104165 -97.193582 0.678444 -6.339451 54.193790 -0.287701 -0.185246 3.487856 -0.551700 0.000000 -76.666601
0.361050 18.885494 1.850688 90.746745 -85.501399 -31.785355 -8.549075 -1.082136 2.051919 -11.699973 -11.731567 -94.156084 -1.619312 4.357115 45.397289 1.160767 6.884044 14.719967 3.677200 0.000000 -62.166200 9.351061 3.269619 3.866354 -5.051400 -2.065753 -98.488843 0.909870 -6.311392 52.518008 -0.049166 0.705970 4.443023 -0.337600 -0.000000 -77.204100
0.176150 18.785823 1.824423 91.596745 -85.436842 -32.089085 -8.522853 -0.933761 2.131311 -12.001725 -12.329389 -95.018978 -1.986005 4.274050 43.050079 0.945931 6.096060 15.304223 3.468500 -0.000000 -63.027600 9.366651 3.230353 3.905080 -4.878464 -2.003497 -99.690595 1.162148 -6.278368 50.766822 0.181330 1.524672 5.624271 -0.115400 -0.000000 -77.860300
-0.011080 18.675929 1.798505 92.526082 -85.414976 -32.533038 -8.509388 -0.787528 2.217569 -12.335995 -12.841675 -95.773972 -2.365980 4.174831 40.662594 0.727082 5.332365 16.110069 3.268600 -0.000001 -63.823101 9.391737 3.168032 3.931310 -4.497835 -1.889389 -100.814469 1.430336 -6.241017 48.976768 0.396404 2.244746 7.029309 0.110300 0.000000 -78.579300
-0.200551 18.555813 1.773294 93.498037 -85.436902 -33.079808 -8.507225 -0.648760 2.308475 -12.698399 -13.267564 -96.435903 -2.749925 4.062181 38.272530 0.508769 4.608089 17.180384 3.079100 -0.000001 -64.767200 9.424809 3.082632 3.946291 -3.907278 -1.712305 -101.872163 1.713430 -6.202385 47.174119 0.593614 2.861168 8.666484 0.338700 0.000000 -79.386300
-0.392097 18.425629 1.749023 94.520173 -85.504018 -33.741369 -8.514128 -0.521957 2.398528 -13.087319 -13.604151 -97.014555 -3.128730 3.941130 35.927722 0.294042 3.922026 18.521361 2.890900 -0.000000 -65.851400 9.463632 2.975173 3.951219 -3.116287 -1.461186 -102.864065 2.009892 -6.163986 45.382457 0.772975 3.382366 10.534516 0.571600 -0.000000 -80.271200
